<svg width="1024" height="184" viewBox="0 0 1024 184" fill="none" xmlns="http://www.w3.org/2000/svg">
<path opacity="0.5" d="M25.36 155.68L25.332 84.5009C25.332 84.5009 25.1083 61.0184 25.3037 13.3219C25.4993 -34.3747 187.407 59.4077 187.549 84.7253C187.692 110.043 25.3823 212.882 25.3598 155.68L25.36 155.68Z" fill="#D35400" fill-opacity="0.501961"/>
<path opacity="0.7" d="M57.2663 172.621L29.2841 107.173C29.2841 107.173 19.8555 85.665 1.30184 41.7246C-17.2516 -2.21592 168.479 20.4393 178.554 43.6663C188.629 66.8935 79.7536 225.217 57.2661 172.621L57.2663 172.621Z" fill="#ECA700" fill-opacity="0.701961"/>
<path d="M41.2811 166.044L25.9647 98.0786C25.9647 98.0786 20.7025 75.7034 10.6483 30.1133C0.594123 -15.4768 178.741 38.5323 184.318 62.6776C189.896 86.8231 53.5898 220.663 41.281 166.044L41.2811 166.044Z" fill="url(#paint0_radial_600_136718)"/>
<path d="M52.873 59.1703C55.1537 69.2622 65.1123 75.5518 75.2044 73.2721L88.2072 70.3336L101.982 67.2207L106.381 66.2265L106.414 66.219C109.422 65.5394 112.39 67.4135 113.069 70.4208L114.001 74.5453C114.68 77.5526 112.806 80.5202 109.799 81.1995L109.766 81.207L106.029 82.0559L79.6779 88.0076L83.7942 106.223L113.881 99.4253C123.973 97.1447 130.263 87.186 127.983 77.094L124.598 62.1137L124.619 62.1084C122.339 52.0166 112.379 45.7271 102.287 48.0068L84.0916 52.1156L52.873 59.1703Z" fill="white" fill-opacity="0.941176"/>
<path d="M48.1621 38.3591C58.2522 36.0757 68.2142 42.357 70.5006 52.4461L52.2856 56.5688L53.4633 61.771L48.1621 38.3591Z" fill="#FEF901"/>
<path d="M82.7085 106.468L78.5919 88.2524L60.377 92.3656L67.4666 123.751C69.7472 133.843 79.7059 140.133 89.7979 137.853L82.7085 106.468Z" fill="white" fill-opacity="0.996078"/>
<path d="M289.269 76.3019V78.4483H278.022V76.3019C278.022 75.9013 277.821 75.7009 277.421 75.7009H250.547C250.147 75.7009 249.946 75.9013 249.946 76.3019V83.1705C249.946 83.5139 250.147 83.6856 250.547 83.6856H277.421C280.741 83.6856 283.545 84.859 285.835 87.2057C288.124 89.4953 289.269 92.2713 289.269 95.5339V102.402C289.269 105.665 288.124 108.47 285.835 110.816C283.545 113.106 280.741 114.251 277.421 114.251H250.547C247.285 114.251 244.48 113.106 242.133 110.816C239.844 108.47 238.699 105.665 238.699 102.402V100.256H249.946V102.402C249.946 102.803 250.147 103.003 250.547 103.003H277.421C277.821 103.003 278.022 102.803 278.022 102.402V95.5339C278.022 95.1905 277.821 95.0187 277.421 95.0187H250.547C247.285 95.0187 244.48 93.874 242.133 91.5845C239.844 89.2377 238.699 86.433 238.699 83.1705V76.3019C238.699 73.0394 239.844 70.2633 242.133 67.9738C244.48 65.627 247.285 64.4536 250.547 64.4536H277.421C280.741 64.4536 283.545 65.627 285.835 67.9738C288.124 70.2633 289.269 73.0394 289.269 76.3019V76.3019Z" fill="#EC8D1A"/>
<path d="M335.531 64.4536C338.794 64.4536 341.57 65.627 343.859 67.9738C346.206 70.2633 347.379 73.0394 347.379 76.3019V95.0187H308.057V102.402C308.057 102.803 308.257 103.003 308.658 103.003H347.379V114.251H308.658C305.395 114.251 302.591 113.106 300.244 110.816C297.954 108.47 296.81 105.665 296.81 102.402V76.3019C296.81 73.0394 297.954 70.2633 300.244 67.9738C302.591 65.627 305.395 64.4536 308.658 64.4536H335.531ZM308.057 83.6856H336.132V76.3019C336.132 75.9013 335.932 75.7009 335.531 75.7009H308.658C308.257 75.7009 308.057 75.9013 308.057 76.3019V83.6856Z" fill="#EC8D1A"/>
<path d="M386.995 75.7012H367.591V102.403C367.591 102.803 367.791 103.004 368.192 103.004H386.995V114.251H368.192C364.872 114.251 362.068 113.106 359.778 110.817C357.489 108.47 356.344 105.665 356.344 102.403V48.1411H367.591V64.454H386.995V75.7012Z" fill="#EC8D1A"/>
<path d="M432.714 64.4536C435.976 64.4536 438.752 65.627 441.042 67.9738C443.389 70.2633 444.562 73.0394 444.562 76.3019V114.251H433.315V76.3019C433.315 75.9013 433.114 75.7009 432.714 75.7009H405.84C405.44 75.7009 405.239 75.9013 405.239 76.3019V114.251H393.992V64.4536H432.714Z" fill="#EC8D1A"/>
<path d="M489.974 64.4536C493.236 64.4536 496.012 65.627 498.302 67.9738C500.648 70.2633 501.822 73.0394 501.822 76.3019V95.0187H462.499V102.402C462.499 102.803 462.7 103.003 463.1 103.003H501.822V114.251H463.1C459.838 114.251 457.033 113.106 454.686 110.816C452.397 108.47 451.252 105.665 451.252 102.402V76.3019C451.252 73.0394 452.397 70.2633 454.686 67.9738C457.033 65.627 459.838 64.4536 463.1 64.4536H489.974ZM462.499 83.6856H490.575V76.3019C490.575 75.9013 490.374 75.7009 489.974 75.7009H463.1C462.7 75.7009 462.499 75.9013 462.499 76.3019V83.6856Z" fill="#EC8D1A"/>
<path d="M559.152 122.15C559.152 125.412 558.007 128.188 555.718 130.478C553.428 132.824 550.652 133.998 547.389 133.998H516.91V122.665H547.389C547.733 122.665 547.905 122.493 547.905 122.15V114.251H520.43C517.168 114.251 514.363 113.106 512.016 110.816C509.727 108.47 508.582 105.665 508.582 102.402V76.3019C508.582 73.0394 509.727 70.2633 512.016 67.9738C514.363 65.627 517.168 64.4536 520.43 64.4536H547.389C550.652 64.4536 553.428 65.627 555.718 67.9738C558.007 70.2633 559.152 73.0394 559.152 76.3019V122.15ZM520.43 103.003H547.389C547.733 103.003 547.905 102.803 547.905 102.402V76.3019C547.905 75.9013 547.733 75.7009 547.389 75.7009H520.43C520.03 75.7009 519.829 75.9013 519.829 76.3019V102.402C519.829 102.803 520.03 103.003 520.43 103.003Z" fill="#EC8D1A"/>
<path d="M633.606 64.4536C636.869 64.4536 639.645 65.627 641.934 67.9738C644.281 70.2633 645.455 73.0394 645.455 76.3019V102.402C645.455 105.665 644.281 108.47 641.934 110.816C639.645 113.106 636.869 114.251 633.606 114.251H606.132V133.998H594.885V64.4536H633.606ZM634.207 102.402V76.3019C634.207 75.9013 634.007 75.7009 633.606 75.7009H606.733C606.332 75.7009 606.132 75.9013 606.132 76.3019V102.402C606.132 102.803 606.332 103.003 606.733 103.003H633.606C634.007 103.003 634.207 102.803 634.207 102.402Z" fill="#B6B2B2"/>
<path d="M651.727 48.1411H663.06V102.403C663.06 102.803 663.231 103.004 663.575 103.004H673.62V114.251H663.575C660.312 114.251 657.508 113.106 655.161 110.817C652.871 108.47 651.727 105.665 651.727 102.403V48.1411Z" fill="#B6B2B2"/>
<path d="M719.962 64.4536C723.224 64.4536 726 65.627 728.29 67.9738C730.637 70.2633 731.81 73.0394 731.81 76.3019V114.251H693.088C689.826 114.251 687.021 113.106 684.675 110.816C682.385 108.47 681.24 105.665 681.24 102.402V83.6856H720.563V76.3019C720.563 75.9013 720.362 75.7009 719.962 75.7009H681.24V64.4536H719.962ZM720.563 103.003V95.0187H692.488V102.402C692.488 102.803 692.688 103.003 693.088 103.003H720.563Z" fill="#B6B2B2"/>
<path d="M790.482 122.15C790.482 125.412 789.337 128.188 787.048 130.478C784.758 132.825 781.982 133.998 778.72 133.998H748.24V122.665H778.72C779.063 122.665 779.235 122.493 779.235 122.15V114.251H751.76C748.498 114.251 745.693 113.106 743.346 110.817C741.057 108.47 739.912 105.665 739.912 102.403V64.6255H751.159V102.403C751.159 102.803 751.36 103.004 751.76 103.004H778.72C779.063 103.004 779.235 102.803 779.235 102.403V64.6255H790.482V122.15Z" fill="#B6B2B2"/>
<path d="M838.523 64.454C841.786 64.454 844.562 65.6274 846.851 67.9741C849.198 70.2637 850.372 73.0397 850.372 76.3023V102.403C850.372 105.665 849.198 108.47 846.851 110.817C844.562 113.106 841.786 114.251 838.523 114.251H799.802V48.1411H811.049V64.454H838.523ZM839.124 102.403V76.3023C839.124 75.9016 838.924 75.7012 838.523 75.7012H811.65C811.249 75.7012 811.049 75.9016 811.049 76.3023V102.403C811.049 102.803 811.249 103.004 811.65 103.004H838.523C838.924 103.004 839.124 102.803 839.124 102.403Z" fill="#B6B2B2"/>
<path d="M868.91 64.4536H895.783C899.046 64.4536 901.822 65.627 904.111 67.9738C906.458 70.2633 907.631 73.0394 907.631 76.3019V102.402C907.631 105.665 906.458 108.47 904.111 110.816C901.822 113.106 899.046 114.251 895.783 114.251H868.91C865.647 114.251 862.843 113.106 860.496 110.816C858.206 108.47 857.062 105.665 857.062 102.402V76.3019C857.062 73.0394 858.206 70.2633 860.496 67.9738C862.843 65.627 865.647 64.4536 868.91 64.4536ZM895.783 75.7009H868.91C868.509 75.7009 868.309 75.9013 868.309 76.3019V102.402C868.309 102.803 868.509 103.003 868.91 103.003H895.783C896.184 103.003 896.384 102.803 896.384 102.402V76.3019C896.384 75.9013 896.184 75.7009 895.783 75.7009Z" fill="#B6B2B2"/>
<path d="M926.259 64.4536H953.133C956.395 64.4536 959.171 65.627 961.461 67.9738C963.808 70.2633 964.981 73.0394 964.981 76.3019V102.402C964.981 105.665 963.808 108.47 961.461 110.816C959.171 113.106 956.395 114.251 953.133 114.251H926.259C922.997 114.251 920.192 113.106 917.845 110.816C915.556 108.47 914.411 105.665 914.411 102.402V76.3019C914.411 73.0394 915.556 70.2633 917.845 67.9738C920.192 65.627 922.997 64.4536 926.259 64.4536ZM953.133 75.7009H926.259C925.859 75.7009 925.658 75.9013 925.658 76.3019V102.402C925.658 102.803 925.859 103.003 926.259 103.003H953.133C953.533 103.003 953.734 102.803 953.734 102.402V76.3019C953.734 75.9013 953.533 75.7009 953.133 75.7009Z" fill="#B6B2B2"/>
<path d="M1011.89 64.454H1024V67.3731L1004.08 89.3525L1024 111.332V114.251H1011.89L994.122 95.0191H985.279V114.251H974.031V48.1411H985.279V83.6859H994.122L1011.89 64.454Z" fill="#B6B2B2"/>
<path d="M877.99 85.0723H886.313V93.3949H877.99V85.0723Z" fill="#B6B2B2"/>
<path d="M935.737 85.0723H944.06V93.3949H935.737V85.0723Z" fill="#B6B2B2"/>
<path d="M877.99 85.0723H886.313V93.3949H877.99V85.0723Z" fill="#B6B2B2"/>
<defs>
<radialGradient id="paint0_radial_600_136718" cx="0" cy="0" r="1" gradientUnits="userSpaceOnUse" gradientTransform="translate(76.5656 91.5801) rotate(-30.7283) scale(148.096 84.6552)">
<stop stop-color="#FFCF4B"/>
<stop offset="0.435713" stop-color="#F39C12"/>
<stop offset="1" stop-color="#E67E22"/>
</radialGradient>
</defs>
</svg>
