<svg width="480" height="240" viewBox="0 0 480 240" fill="none" xmlns="http://www.w3.org/2000/svg">
<rect width="480" height="240" fill="white"/>
<path d="M480 232.375C480 232.424 479.983 232.473 479.95 232.519C479.917 232.564 479.868 232.606 479.807 232.64C479.745 232.675 479.672 232.703 479.592 232.722C479.511 232.741 479.425 232.75 479.338 232.75H0.662123C0.486515 232.75 0.318106 232.71 0.193933 232.64C0.069759 232.57 0 232.474 0 232.375C0 232.276 0.069759 232.18 0.193933 232.11C0.318106 232.04 0.486515 232 0.662123 232H479.338C479.425 232 479.511 232.009 479.592 232.028C479.672 232.047 479.745 232.075 479.807 232.11C479.868 232.144 479.917 232.186 479.95 232.231C479.983 232.277 480 232.326 480 232.375Z" fill="#CCCCCC"/>
<path d="M268.272 134.749L178.132 157.96C175.075 158.744 171.831 158.283 169.113 156.678C166.395 155.073 164.424 152.456 163.634 149.4L136.373 43.5386C135.59 40.481 136.051 37.2374 137.656 34.5193C139.26 31.8013 141.878 29.8308 144.934 29.0402L228.794 7.44531L250.258 17.0541L276.832 120.25C277.616 123.308 277.155 126.551 275.55 129.269C273.945 131.987 271.327 133.958 268.272 134.749Z" fill="#F2F2F2"/>
<path d="M145.788 32.3584C143.612 32.9214 141.748 34.3246 140.605 36.2602C139.462 38.1958 139.134 40.5057 139.692 42.6831L166.953 148.544C167.516 150.721 168.919 152.584 170.854 153.727C172.79 154.87 175.1 155.199 177.277 154.641L267.417 131.429C269.593 130.866 271.457 129.462 272.6 127.527C273.742 125.591 274.071 123.281 273.513 121.104L247.35 19.507L228.487 11.0625L145.788 32.3584Z" fill="white"/>
<path d="M250.029 17.5984L236.079 21.1908C235.06 21.453 233.979 21.3 233.074 20.7653C232.168 20.2306 231.512 19.3581 231.25 18.3397L228.597 8.03619C228.585 7.99108 228.586 7.94361 228.601 7.89922C228.615 7.85483 228.641 7.81533 228.677 7.78523C228.712 7.75514 228.755 7.73567 228.802 7.72907C228.848 7.72246 228.895 7.72898 228.937 7.74789L250.068 17.1319C250.115 17.1528 250.154 17.1878 250.18 17.2321C250.207 17.2763 250.218 17.3277 250.214 17.3789C250.21 17.4302 250.19 17.4789 250.157 17.5182C250.123 17.5575 250.079 17.5856 250.029 17.5984Z" fill="#F2F2F2"/>
<path d="M242.69 108.004L201.65 118.572C201.398 118.637 201.136 118.652 200.878 118.615C200.62 118.579 200.372 118.492 200.148 118.359C199.924 118.227 199.728 118.052 199.571 117.844C199.415 117.636 199.301 117.399 199.236 117.147C199.171 116.895 199.156 116.632 199.193 116.374C199.229 116.116 199.316 115.868 199.449 115.644C199.581 115.42 199.756 115.224 199.964 115.068C200.173 114.911 200.409 114.797 200.662 114.732L241.701 104.164C241.953 104.099 242.215 104.085 242.473 104.121C242.731 104.158 242.979 104.245 243.203 104.377C243.427 104.509 243.623 104.685 243.78 104.893C243.936 105.101 244.05 105.338 244.115 105.59C244.18 105.842 244.195 106.104 244.158 106.362C244.122 106.62 244.035 106.868 243.902 107.092C243.77 107.316 243.595 107.512 243.387 107.669C243.179 107.825 242.942 107.939 242.69 108.004Z" fill="#CCCCCC"/>
<path d="M252.278 112.449L203.319 125.057C202.81 125.188 202.27 125.111 201.817 124.844C201.364 124.576 201.036 124.14 200.905 123.631C200.774 123.122 200.85 122.581 201.118 122.129C201.385 121.676 201.821 121.348 202.33 121.217L251.289 108.609C251.799 108.478 252.339 108.555 252.791 108.823C253.243 109.09 253.571 109.526 253.702 110.035C253.833 110.544 253.757 111.084 253.49 111.537C253.223 111.989 252.787 112.318 252.278 112.449Z" fill="#CCCCCC"/>
<path d="M184.9 131.296C188.771 131.296 191.908 128.159 191.908 124.289C191.908 120.419 188.771 117.281 184.9 117.281C181.03 117.281 177.893 120.419 177.893 124.289C177.893 128.159 181.03 131.296 184.9 131.296Z" fill="#E6E6E6"/>
<path d="M238.326 89.6619L183.822 103.692C182.247 104.096 180.576 103.858 179.176 103.031C177.776 102.204 176.761 100.856 176.353 99.2816L164.931 54.9096C164.528 53.3344 164.766 51.6635 165.592 50.2633C166.419 48.8632 167.768 47.8483 169.342 47.4411L223.846 33.4109C225.421 33.0073 227.092 33.245 228.492 34.0719C229.893 34.8988 230.908 36.2472 231.315 37.8215L242.737 82.1935C243.14 83.7686 242.903 85.4396 242.076 86.8397C241.249 88.2398 239.9 89.2548 238.326 89.6619Z" fill="white"/>
<path d="M238.326 89.6619L183.822 103.692C182.247 104.096 180.576 103.858 179.176 103.031C177.776 102.204 176.761 100.856 176.353 99.2816L164.931 54.9096C164.528 53.3344 164.766 51.6635 165.592 50.2633C166.419 48.8632 167.768 47.8483 169.342 47.4411L223.846 33.4109C225.421 33.0073 227.092 33.245 228.492 34.0719C229.893 34.8988 230.908 36.2472 231.315 37.8215L242.737 82.1935C243.14 83.7686 242.903 85.4396 242.076 86.8397C241.249 88.2398 239.9 89.2548 238.326 89.6619ZM169.522 48.1399C168.133 48.4991 166.943 49.3947 166.213 50.6301C165.484 51.8655 165.274 53.3399 165.63 54.7297L177.052 99.1017C177.411 100.491 178.307 101.681 179.542 102.41C180.778 103.14 182.252 103.349 183.642 102.993L238.146 88.9632C239.535 88.6039 240.725 87.7084 241.455 86.473C242.184 85.2376 242.394 83.7632 242.038 82.3733L230.616 38.0014C230.257 36.6123 229.361 35.4225 228.126 34.6929C226.89 33.9633 225.416 33.7536 224.026 34.1097L169.522 48.1399Z" fill="#E6E6E6"/>
<path d="M221.081 48.3346L193.574 55.4154C193.333 55.4826 193.076 55.4559 192.854 55.3408C192.633 55.2257 192.463 55.0308 192.38 54.7954C192.341 54.6725 192.328 54.5429 192.341 54.4146C192.354 54.2864 192.393 54.1621 192.455 54.0493C192.518 53.9366 192.603 53.8378 192.705 53.7589C192.807 53.6801 192.924 53.6228 193.048 53.5907L221.049 46.3828C222.18 46.9559 221.883 48.1281 221.081 48.3346Z" fill="#F2F2F2"/>
<path d="M222.323 53.1627L194.816 60.2436C194.575 60.3107 194.318 60.284 194.097 60.1689C193.875 60.0538 193.705 59.8589 193.622 59.6236C193.583 59.5006 193.57 59.371 193.583 59.2428C193.596 59.1145 193.635 58.9902 193.697 58.8775C193.76 58.7647 193.845 58.6659 193.947 58.5871C194.049 58.5082 194.166 58.451 194.291 58.4188L222.292 51.2109C223.423 51.7841 223.125 52.9562 222.323 53.1627Z" fill="#F2F2F2"/>
<path d="M189.576 64.5157L181.181 66.6767C180.907 66.747 180.616 66.7056 180.373 66.5617C180.129 66.4178 179.952 66.183 179.882 65.909L177.331 56.0022C177.261 55.728 177.302 55.4372 177.446 55.1934C177.59 54.9497 177.825 54.7731 178.099 54.7022L186.494 52.5412C186.768 52.471 187.059 52.5124 187.303 52.6563C187.546 52.8003 187.723 53.0349 187.794 53.3089L190.344 63.2157C190.414 63.4899 190.373 63.7808 190.229 64.0245C190.085 64.2682 189.851 64.4449 189.576 64.5157Z" fill="#E6E6E6"/>
<path d="M224.786 63.0612L182.804 73.8679C182.564 73.9351 182.307 73.9084 182.085 73.7933C181.864 73.6782 181.694 73.4833 181.611 73.2479C181.572 73.125 181.559 72.9954 181.572 72.8671C181.585 72.7389 181.624 72.6146 181.686 72.5018C181.749 72.3891 181.834 72.2903 181.936 72.2114C182.038 72.1326 182.154 72.0753 182.279 72.0432L224.755 61.1094C225.886 61.6825 225.588 62.8548 224.786 63.0612Z" fill="#F2F2F2"/>
<path d="M226.029 67.8893L184.047 78.696C183.807 78.7632 183.55 78.7365 183.328 78.6214C183.107 78.5063 182.937 78.3114 182.854 78.076C182.815 77.9531 182.801 77.8235 182.814 77.6952C182.827 77.567 182.866 77.4427 182.929 77.3299C182.991 77.2172 183.076 77.1184 183.178 77.0395C183.28 76.9607 183.397 76.9035 183.522 76.8713L225.997 65.9375C227.128 66.5106 226.831 67.6828 226.029 67.8893Z" fill="#F2F2F2"/>
<path d="M227.27 72.7097L185.288 83.5164C185.048 83.5835 184.791 83.5568 184.569 83.4417C184.348 83.3266 184.178 83.1317 184.095 82.8963C184.056 82.7734 184.043 82.6438 184.056 82.5156C184.068 82.3873 184.107 82.263 184.17 82.1503C184.233 82.0375 184.317 81.9387 184.419 81.8599C184.521 81.781 184.638 81.7238 184.763 81.6916L227.239 70.7578C228.37 71.3309 228.072 72.5032 227.27 72.7097Z" fill="#F2F2F2"/>
<path d="M228.513 77.5378L186.531 88.3445C186.291 88.4116 186.034 88.3849 185.812 88.2698C185.59 88.1548 185.421 87.9598 185.337 87.7245C185.299 87.6015 185.285 87.472 185.298 87.3437C185.311 87.2154 185.35 87.0911 185.413 86.9784C185.475 86.8656 185.56 86.7668 185.662 86.688C185.764 86.6091 185.881 86.5519 186.006 86.5198L228.481 75.5859C229.612 76.1591 229.315 77.3313 228.513 77.5378Z" fill="#F2F2F2"/>
<path d="M229.754 82.3581L187.773 93.1648C187.532 93.2319 187.275 93.2053 187.054 93.0902C186.832 92.9751 186.663 92.7801 186.579 92.5448C186.54 92.4218 186.527 92.2923 186.54 92.164C186.553 92.0357 186.592 91.9114 186.654 91.7987C186.717 91.686 186.802 91.5871 186.904 91.5083C187.006 91.4294 187.123 91.3722 187.248 91.3401L229.723 80.4062C230.854 80.9794 230.556 82.1516 229.754 82.3581Z" fill="#F2F2F2"/>
<path d="M185.417 126.752C185.265 126.792 185.104 126.781 184.958 126.72L184.949 126.717L183.04 125.907C182.951 125.87 182.871 125.815 182.803 125.747C182.736 125.678 182.683 125.597 182.647 125.508C182.611 125.419 182.592 125.323 182.593 125.227C182.594 125.131 182.614 125.036 182.652 124.947C182.689 124.859 182.744 124.778 182.813 124.711C182.881 124.644 182.963 124.59 183.052 124.555C183.141 124.519 183.237 124.501 183.333 124.502C183.429 124.503 183.524 124.523 183.613 124.56L184.85 125.087L186.47 121.273C186.508 121.185 186.563 121.105 186.631 121.038C186.7 120.97 186.781 120.917 186.87 120.881C186.959 120.845 187.054 120.827 187.15 120.828C187.247 120.829 187.341 120.849 187.43 120.886L187.42 120.911L187.431 120.886C187.609 120.963 187.75 121.106 187.822 121.286C187.895 121.466 187.893 121.668 187.817 121.846L185.91 126.33C185.866 126.433 185.799 126.525 185.713 126.598C185.628 126.671 185.527 126.723 185.418 126.751L185.417 126.752Z" fill="white"/>
<path d="M302.845 175.087H209.765C206.609 175.083 203.583 173.828 201.351 171.596C199.119 169.364 197.863 166.338 197.86 163.181V53.8665C197.863 50.7101 199.119 47.6839 201.351 45.4519C203.583 43.22 206.609 41.9645 209.765 41.9609H296.361L314.751 56.6188V163.181C314.748 166.338 313.492 169.364 311.26 171.596C309.028 173.828 306.002 175.083 302.845 175.087Z" fill="#E6E6E6"/>
<path d="M209.765 45.3906C207.518 45.3932 205.363 46.2872 203.773 47.8766C202.184 49.4661 201.29 51.6211 201.287 53.8688V163.184C201.29 165.432 202.184 167.587 203.773 169.176C205.363 170.765 207.518 171.659 209.765 171.662H302.845C305.093 171.659 307.248 170.765 308.838 169.176C310.427 167.587 311.321 165.432 311.324 163.184V58.2723L295.162 45.3906H209.765Z" fill="white"/>
<path d="M284.742 77.1761H242.363C241.838 77.1761 241.333 76.9673 240.962 76.5954C240.59 76.2236 240.381 75.7193 240.381 75.1935C240.381 74.6677 240.59 74.1634 240.962 73.7916C241.333 73.4198 241.838 73.2109 242.363 73.2109H284.742C285.267 73.2109 285.772 73.4198 286.143 73.7916C286.515 74.1634 286.724 74.6677 286.724 75.1935C286.724 75.7193 286.515 76.2236 286.143 76.5954C285.772 76.9673 285.267 77.1761 284.742 77.1761Z" fill="#895700"/>
<path d="M292.919 83.8714H242.363C241.838 83.8707 241.334 83.6615 240.963 83.2898C240.592 82.9181 240.383 82.4142 240.383 81.8888C240.383 81.3635 240.592 80.8596 240.963 80.4879C241.334 80.1161 241.838 79.907 242.363 79.9063H292.919C293.18 79.9059 293.438 79.9569 293.679 80.0564C293.92 80.1559 294.139 80.3019 294.323 80.486C294.507 80.6701 294.654 80.8888 294.754 81.1295C294.853 81.3702 294.905 81.6283 294.905 81.8888C294.905 82.1494 294.853 82.4075 294.754 82.6482C294.654 82.8889 294.507 83.1076 294.323 83.2917C294.139 83.4758 293.92 83.6218 293.679 83.7213C293.438 83.8208 293.18 83.8718 292.919 83.8714Z" fill="#895700"/>
<path d="M284.741 103.203H242.365C241.839 103.203 241.335 103.412 240.963 103.784C240.591 104.156 240.382 104.66 240.382 105.186C240.382 105.711 240.591 106.216 240.963 106.587C241.335 106.959 241.839 107.168 242.365 107.168H284.741C285.267 107.168 285.771 106.959 286.143 106.587C286.515 106.216 286.724 105.711 286.724 105.186C286.724 104.66 286.515 104.156 286.143 103.784C285.771 103.412 285.267 103.203 284.741 103.203Z" fill="#CCCCCC"/>
<path d="M292.92 109.891H242.365C241.839 109.891 241.335 110.099 240.963 110.471C240.591 110.843 240.382 111.347 240.382 111.873C240.382 112.399 240.591 112.903 240.963 113.275C241.335 113.647 241.839 113.856 242.365 113.856H292.92C293.446 113.856 293.95 113.647 294.322 113.275C294.694 112.903 294.903 112.399 294.903 111.873C294.903 111.347 294.694 110.843 294.322 110.471C293.95 110.099 293.446 109.891 292.92 109.891Z" fill="#CCCCCC"/>
<path d="M284.742 137.153H242.363C241.838 137.153 241.333 136.944 240.962 136.572C240.59 136.2 240.381 135.696 240.381 135.17C240.381 134.644 240.59 134.14 240.962 133.768C241.333 133.396 241.838 133.188 242.363 133.188H284.742C285.267 133.188 285.772 133.396 286.143 133.768C286.515 134.14 286.724 134.644 286.724 135.17C286.724 135.696 286.515 136.2 286.143 136.572C285.772 136.944 285.267 137.153 284.742 137.153Z" fill="#CCCCCC"/>
<path d="M292.919 143.84H242.363C241.838 143.839 241.334 143.63 240.963 143.259C240.592 142.887 240.383 142.383 240.383 141.858C240.383 141.332 240.592 140.828 240.963 140.457C241.334 140.085 241.838 139.876 242.363 139.875H292.919C293.18 139.875 293.438 139.926 293.679 140.025C293.92 140.125 294.139 140.271 294.323 140.455C294.507 140.639 294.654 140.858 294.754 141.098C294.853 141.339 294.905 141.597 294.905 141.858C294.905 142.118 294.853 142.376 294.754 142.617C294.654 142.858 294.507 143.076 294.323 143.26C294.139 143.445 293.92 143.591 293.679 143.69C293.438 143.79 293.18 143.841 292.919 143.84Z" fill="#CCCCCC"/>
<path d="M224.716 85.546C228.586 85.546 231.723 82.4087 231.723 78.5386C231.723 74.6686 228.586 71.5312 224.716 71.5312C220.846 71.5312 217.708 74.6686 217.708 78.5386C217.708 82.4087 220.846 85.546 224.716 85.546Z" fill="#895700"/>
<path d="M224.022 81.2123C223.864 81.2125 223.711 81.1615 223.585 81.067L223.577 81.0611L221.93 79.8013C221.853 79.7429 221.789 79.67 221.741 79.5868C221.693 79.5035 221.661 79.4116 221.648 79.3162C221.636 79.2208 221.642 79.1238 221.667 79.0308C221.692 78.9379 221.735 78.8507 221.793 78.7743C221.852 78.6979 221.925 78.6338 222.008 78.5857C222.091 78.5376 222.183 78.5064 222.279 78.4939C222.374 78.4814 222.471 78.4879 222.564 78.5129C222.657 78.5379 222.744 78.581 222.82 78.6397L223.887 79.4577L226.408 76.1693C226.466 76.093 226.539 76.029 226.622 75.981C226.705 75.9329 226.797 75.9017 226.893 75.8891C226.988 75.8765 227.085 75.8828 227.177 75.9077C227.27 75.9325 227.357 75.9753 227.433 76.0338L227.418 76.0557L227.434 76.0339C227.588 76.1522 227.688 76.3266 227.714 76.5189C227.739 76.7112 227.687 76.9057 227.569 77.0598L224.605 80.926C224.536 81.0151 224.448 81.0872 224.347 81.1367C224.246 81.1862 224.135 81.2117 224.022 81.2114L224.022 81.2123Z" fill="white"/>
<path d="M232.444 108.525C232.444 109.445 232.263 110.356 231.911 111.207C231.559 112.057 231.043 112.83 230.393 113.481C229.742 114.132 228.969 114.648 228.119 115.001C227.269 115.353 226.358 115.534 225.437 115.535C225.377 115.536 225.317 115.533 225.257 115.527C223.879 115.492 222.542 115.051 221.414 114.26C220.285 113.468 219.415 112.362 218.913 111.079C218.41 109.795 218.297 108.392 218.587 107.045C218.878 105.698 219.559 104.466 220.547 103.504C221.534 102.542 222.783 101.893 224.137 101.637C225.491 101.382 226.891 101.531 228.161 102.067C229.431 102.603 230.514 103.501 231.276 104.65C232.038 105.799 232.444 107.146 232.444 108.525Z" fill="#CCCCCC"/>
<path d="M224.716 145.523C228.586 145.523 231.723 142.385 231.723 138.515C231.723 134.645 228.586 131.508 224.716 131.508C220.846 131.508 217.708 134.645 217.708 138.515C217.708 142.385 220.846 145.523 224.716 145.523Z" fill="#CCCCCC"/>
<path d="M314.393 57.087H299.987C298.936 57.087 297.927 56.6693 297.183 55.9257C296.44 55.182 296.022 54.1735 296.022 53.1218V42.4822C296.022 42.4356 296.035 42.39 296.06 42.3505C296.085 42.3111 296.12 42.2794 296.162 42.2591C296.204 42.2388 296.251 42.2308 296.297 42.2359C296.343 42.241 296.387 42.259 296.424 42.2879L314.546 56.6449C314.587 56.6769 314.616 56.7206 314.631 56.77C314.645 56.8194 314.644 56.8721 314.627 56.9207C314.61 56.9693 314.578 57.0114 314.536 57.0412C314.494 57.071 314.444 57.087 314.393 57.087Z" fill="#CCCCCC"/>
<path d="M232.444 108.526C232.444 109.446 232.263 110.358 231.911 111.208C231.559 112.059 231.043 112.831 230.393 113.482C229.742 114.133 228.97 114.65 228.119 115.002C227.269 115.354 226.358 115.536 225.437 115.536C225.377 115.537 225.317 115.535 225.257 115.529C224.352 113.271 224.003 110.828 224.239 108.407C224.476 105.986 225.292 103.657 226.617 101.617C228.247 101.897 229.726 102.743 230.792 104.008C231.858 105.272 232.443 106.872 232.444 108.526Z" fill="#895700"/>
<path d="M240.381 105.187C240.382 104.661 240.591 104.157 240.963 103.785C241.335 103.413 241.839 103.204 242.365 103.203H252.925C253.542 104.458 253.98 105.792 254.227 107.168H242.365C241.84 107.168 241.335 106.959 240.963 106.588C240.591 106.217 240.382 105.713 240.381 105.187Z" fill="#895700"/>
<path d="M254.472 109.891C254.473 111.23 254.296 112.563 253.946 113.856H242.365C241.839 113.856 241.335 113.647 240.963 113.275C240.591 112.903 240.382 112.399 240.382 111.873C240.382 111.347 240.591 110.843 240.963 110.471C241.335 110.099 241.839 109.891 242.365 109.891H254.472Z" fill="#895700"/>
<path d="M280.601 134.346C280.302 134.836 279.82 135.187 279.262 135.322C278.704 135.457 278.116 135.365 277.626 135.066L252.369 119.661C252.127 119.513 251.916 119.319 251.748 119.089C251.581 118.859 251.46 118.599 251.393 118.323C251.326 118.046 251.314 117.76 251.358 117.479C251.402 117.198 251.501 116.929 251.649 116.686C251.797 116.443 251.991 116.232 252.221 116.064C252.45 115.897 252.711 115.776 252.987 115.709C253.263 115.642 253.55 115.631 253.831 115.674C254.112 115.718 254.381 115.817 254.624 115.965L279.88 131.37C280.37 131.669 280.721 132.151 280.857 132.709C280.992 133.267 280.9 133.855 280.601 134.346Z" fill="#3F3D56"/>
<path d="M255.344 118.936C253.561 121.86 250.95 124.19 247.843 125.63C244.735 127.071 241.271 127.557 237.887 127.028C234.503 126.5 231.352 124.979 228.832 122.659C226.312 120.34 224.536 117.325 223.73 113.996C222.924 110.667 223.122 107.174 224.301 103.959C225.48 100.743 227.586 97.9488 230.353 95.9299C233.119 93.911 236.423 92.7579 239.845 92.6164C243.267 92.4748 246.654 93.3512 249.578 95.1348C253.495 97.53 256.302 101.381 257.383 105.843C258.464 110.305 257.731 115.014 255.344 118.936ZM229.472 103.156C228.135 105.349 227.477 107.889 227.584 110.456C227.69 113.022 228.555 115.5 230.069 117.575C231.583 119.65 233.678 121.229 236.09 122.113C238.502 122.997 241.122 123.146 243.618 122.542C246.115 121.937 248.376 120.605 250.116 118.715C251.856 116.825 252.996 114.462 253.393 111.924C253.789 109.386 253.424 106.787 252.344 104.457C251.264 102.126 249.517 100.168 247.324 98.8308C244.382 97.041 240.85 96.4912 237.504 97.3019C234.157 98.1127 231.269 100.218 229.472 103.156Z" fill="#3F3D56"/>
<path d="M310.828 112.699C315.722 112.699 319.689 108.731 319.689 103.838C319.689 98.9438 315.722 94.9766 310.828 94.9766C305.934 94.9766 301.967 98.9438 301.967 103.838C301.967 108.731 305.934 112.699 310.828 112.699Z" fill="#A0616A"/>
<path d="M310.256 153.508C310.085 152.976 310.028 152.413 310.09 151.858C310.152 151.302 310.33 150.765 310.614 150.283C310.897 149.801 311.279 149.385 311.735 149.061C312.191 148.736 312.71 148.512 313.258 148.403C313.432 148.369 313.608 148.347 313.785 148.338L323.119 133.357L314.593 125.252C314.267 124.942 314.006 124.571 313.824 124.16C313.643 123.749 313.544 123.306 313.535 122.856C313.526 122.407 313.605 121.96 313.77 121.542C313.934 121.123 314.18 120.742 314.492 120.419C314.805 120.096 315.178 119.838 315.591 119.66C316.004 119.483 316.448 119.388 316.898 119.383C317.347 119.378 317.793 119.462 318.21 119.63C318.627 119.798 319.006 120.047 319.326 120.363L331.098 131.97L331.122 131.999C331.486 132.553 331.662 133.21 331.623 133.872C331.584 134.534 331.333 135.165 330.907 135.673L317.829 151.141C317.868 151.265 317.901 151.391 317.927 151.518C318.036 152.067 318.028 152.632 317.904 153.177C317.78 153.722 317.541 154.235 317.205 154.682C316.869 155.129 316.442 155.499 315.952 155.77C315.462 156.04 314.921 156.204 314.364 156.25C314.251 156.26 314.139 156.265 314.028 156.265C313.189 156.261 312.372 155.993 311.695 155.498C311.018 155.003 310.514 154.307 310.256 153.508Z" fill="#A0616A"/>
<path d="M296.234 227.162L291.811 227.162L289.707 210.102L296.235 210.102L296.234 227.162Z" fill="#A0616A"/>
<path d="M297.363 231.451L283.101 231.45V231.27C283.101 230.541 283.245 229.819 283.524 229.145C283.803 228.472 284.211 227.86 284.727 227.345C285.242 226.829 285.854 226.42 286.528 226.141C287.201 225.862 287.923 225.719 288.652 225.719L297.363 225.719L297.363 231.451Z" fill="#2F2E41"/>
<path d="M340.197 221.041L336.397 223.304L325.86 209.723L331.469 206.383L340.197 221.041Z" fill="#A0616A"/>
<path d="M343.36 224.151L331.106 231.447L331.013 231.292C330.641 230.666 330.395 229.972 330.29 229.251C330.185 228.53 330.223 227.795 330.402 227.088C330.581 226.381 330.898 225.717 331.334 225.133C331.77 224.548 332.317 224.056 332.943 223.683L340.428 219.227L343.36 224.151Z" fill="#2F2E41"/>
<path d="M289.149 219.641C286.186 184.752 284.424 152.34 295.255 139.118L295.339 139.016L313.567 146.307L313.597 146.372C313.659 146.506 319.721 159.841 318.307 168.811L322.803 189.493L337.464 214.041C337.582 214.238 337.656 214.459 337.683 214.687C337.709 214.916 337.686 215.148 337.617 215.367C337.547 215.586 337.431 215.788 337.277 215.959C337.123 216.13 336.934 216.267 336.724 216.36L330.353 219.163C329.993 219.319 329.589 219.341 329.215 219.224C328.841 219.107 328.521 218.859 328.315 218.526L312.367 192.521L303.359 172.575C303.311 172.467 303.227 172.378 303.123 172.321C303.018 172.265 302.898 172.245 302.78 172.264C302.663 172.283 302.555 172.339 302.474 172.426C302.392 172.512 302.341 172.623 302.328 172.741L297.335 219.676C297.293 220.075 297.105 220.445 296.807 220.713C296.509 220.981 296.122 221.129 295.721 221.128H290.768C290.361 221.126 289.97 220.972 289.671 220.697C289.372 220.422 289.186 220.046 289.149 219.641Z" fill="#2F2E41"/>
<path d="M295.316 139.399L295.23 139.357L295.216 139.262C294.535 134.496 295.341 129.201 297.612 123.523C298.731 120.744 300.811 118.46 303.473 117.086C306.135 115.713 309.202 115.341 312.115 116.04C313.794 116.453 315.367 117.21 316.737 118.264C318.107 119.318 319.244 120.644 320.074 122.16C320.894 123.66 321.394 125.314 321.541 127.017C321.688 128.72 321.48 130.435 320.93 132.054C318.068 140.424 314.355 148.255 314.318 148.333L314.24 148.497L295.316 139.399Z" fill="#895700"/>
<path d="M275.429 127.528C275.868 127.182 276.375 126.932 276.917 126.795C277.459 126.658 278.024 126.638 278.575 126.734C279.126 126.831 279.65 127.043 280.113 127.356C280.576 127.67 280.968 128.078 281.262 128.553C281.355 128.704 281.437 128.861 281.508 129.023L298.808 132.52L303.415 121.696C303.591 121.282 303.847 120.907 304.168 120.593C304.49 120.279 304.871 120.032 305.288 119.866C305.706 119.7 306.152 119.618 306.602 119.625C307.051 119.633 307.495 119.729 307.907 119.909C308.319 120.089 308.691 120.348 309.002 120.673C309.313 120.997 309.557 121.38 309.719 121.799C309.881 122.218 309.959 122.666 309.948 123.115C309.936 123.564 309.836 124.007 309.652 124.417L302.902 139.508L302.883 139.541C302.492 140.076 301.938 140.47 301.305 140.666C300.671 140.862 299.992 140.848 299.367 140.627L280.299 133.793C280.196 133.873 280.09 133.948 279.979 134.017C279.504 134.311 278.972 134.502 278.417 134.576C277.863 134.651 277.299 134.607 276.763 134.449C276.227 134.29 275.73 134.02 275.306 133.656C274.881 133.292 274.538 132.842 274.299 132.337C274.251 132.235 274.207 132.131 274.168 132.027C273.877 131.24 273.843 130.381 274.069 129.573C274.296 128.765 274.772 128.05 275.429 127.528Z" fill="#A0616A"/>
<path d="M342.84 113.325C341.986 111.813 340.743 110.428 339.099 109.868C336.976 109.147 334.677 109.915 332.494 110.428C330.812 110.824 329.055 111.066 327.36 110.732C325.665 110.399 324.03 109.412 323.259 107.866C322.124 105.592 323.08 102.88 323.011 100.339C322.975 98.9565 322.626 97.5996 321.99 96.3711C321.354 95.1426 320.447 94.0745 319.338 93.2474C318.229 92.4202 316.947 91.8556 315.588 91.5961C314.229 91.3366 312.829 91.3889 311.494 91.7492C309.403 91.146 307.511 91.0902 306.218 92.697C304.592 92.697 303.032 93.3432 301.881 94.4934C300.731 95.6436 300.085 97.2036 300.085 98.8302H305.949C305.671 100.326 305.989 101.87 306.835 103.135C307.87 104.656 309.67 105.756 310.017 107.563C310.353 109.314 309.162 110.975 307.914 112.248C306.665 113.521 305.217 114.782 304.827 116.522C304.588 117.843 304.86 119.205 305.586 120.333C306.311 121.448 307.211 122.439 308.251 123.269C312.936 127.282 318.503 130.13 324.499 131.581C328.722 132.598 333.34 132.861 337.26 130.991C338.828 130.243 340.226 129.18 341.366 127.869C342.506 126.558 343.364 125.027 343.888 123.37C344.411 121.713 344.588 119.967 344.408 118.239C344.227 116.511 343.694 114.838 342.84 113.325Z" fill="#2F2E41"/>
<path d="M58.7866 222.994C57.4621 223.077 56.7301 221.436 57.7321 220.48L57.8318 220.084C57.8187 220.053 57.8055 220.021 57.7922 219.989C56.4528 216.804 51.9132 216.826 50.5851 220.016C49.4064 222.847 47.9056 225.683 47.5361 228.677C47.3704 229.998 47.445 231.344 47.739 232.641C44.977 226.624 43.5235 220.054 43.5235 213.447C43.5235 211.787 43.6146 210.127 43.801 208.471C43.9542 207.116 44.1653 205.77 44.4387 204.436C45.9169 197.226 49.1179 190.359 53.735 184.623C55.9546 183.413 57.8056 181.521 58.9236 179.254C59.3253 178.437 59.64 177.557 59.7891 176.661C59.5365 176.694 58.8366 172.858 59.0271 172.622C58.6751 172.09 58.0451 171.825 57.6606 171.305C55.7486 168.72 53.1143 169.171 51.7391 172.684C48.8013 174.163 48.7729 176.615 50.5755 178.974C51.7223 180.474 51.8799 182.504 52.8862 184.111C52.7826 184.243 52.6749 184.371 52.5714 184.503C50.673 186.931 49.0311 189.541 47.6469 192.283C48.0381 189.236 47.4606 185.565 46.476 183.198C45.3552 180.502 43.2544 178.231 41.4044 175.9C39.1823 173.1 34.6256 174.322 34.2341 177.871C34.2303 177.906 34.2266 177.94 34.223 177.974C34.4978 178.129 34.767 178.293 35.0299 178.466C36.5298 179.456 36.0115 181.774 34.2343 182.048L34.194 182.054C34.2934 183.041 34.4632 184.02 34.7116 184.982C32.3383 194.135 37.4621 197.469 44.7782 197.618C44.9397 197.701 45.0971 197.784 45.2586 197.862C44.5173 199.943 43.9252 202.078 43.4863 204.242C43.0929 206.154 42.8195 208.087 42.6663 210.028C42.4758 212.477 42.4924 214.938 42.6995 217.382L42.687 217.296C42.1612 214.603 40.6953 212.088 38.5668 210.346C35.3961 207.748 30.9164 206.792 27.4957 204.704C25.8491 203.699 23.7391 204.998 24.0265 206.901L24.0405 206.993C24.5498 207.199 25.0467 207.439 25.527 207.707C25.8018 207.862 26.071 208.026 26.334 208.199C27.8339 209.188 27.3155 211.507 25.5383 211.781L25.498 211.787C25.4691 211.791 25.4442 211.795 25.4153 211.799C26.289 213.868 27.5064 215.788 29.0303 217.444C30.5142 225.435 36.8879 226.193 43.7057 223.866H43.7099C44.4552 227.103 45.5443 230.267 46.944 233.281H58.4971C58.5385 233.153 58.5758 233.021 58.6131 232.893C57.5447 232.959 56.4681 232.897 55.4163 232.703C56.2734 231.654 57.1306 230.597 57.9877 229.548C58.0084 229.527 58.025 229.507 58.0416 229.486C58.4764 228.949 58.9153 228.417 59.3501 227.88L59.3504 227.879C59.3776 226.231 59.1791 224.588 58.7866 222.994Z" fill="#F2F2F2"/>
<path d="M406.403 219.007C408.258 219.121 409.283 216.844 407.88 215.517L407.74 214.969C407.758 214.925 407.777 214.881 407.796 214.837C409.671 210.418 416.026 210.448 417.885 214.874C419.536 218.803 421.637 222.738 422.154 226.891C422.386 228.725 422.282 230.592 421.87 232.392C425.737 224.043 427.772 214.927 427.772 205.76C427.772 203.456 427.644 201.153 427.383 198.855C427.169 196.976 426.873 195.108 426.491 193.257C424.421 183.253 419.94 173.725 413.476 165.766C410.368 164.087 407.777 161.463 406.212 158.317C405.649 157.183 405.209 155.962 405 154.719C405.354 154.765 406.333 149.442 406.067 149.115C406.56 148.376 407.442 148.009 407.98 147.288C410.657 143.701 414.345 144.327 416.27 149.201C420.383 151.253 420.423 154.655 417.899 157.928C416.293 160.01 416.073 162.827 414.664 165.056C414.809 165.239 414.96 165.417 415.105 165.6C417.762 168.969 420.061 172.59 421.999 176.395C421.451 172.167 422.26 167.073 423.638 163.789C425.207 160.048 428.149 156.897 430.739 153.663C433.85 149.778 440.229 151.473 440.777 156.398C440.782 156.446 440.787 156.493 440.792 156.541C440.408 156.756 440.031 156.984 439.663 157.224C437.563 158.597 438.289 161.814 440.777 162.194L440.833 162.202C440.694 163.572 440.456 164.929 440.108 166.265C443.431 178.964 436.258 183.59 426.015 183.798C425.789 183.912 425.569 184.027 425.343 184.136C426.38 187.023 427.209 189.986 427.824 192.988C428.375 195.641 428.757 198.322 428.972 201.015C429.239 204.413 429.215 207.828 428.925 211.22L428.943 211.1C429.679 207.364 431.731 203.875 434.711 201.457C439.15 197.853 445.422 196.525 450.211 193.629C452.516 192.234 455.47 194.036 455.068 196.678L455.048 196.804C454.335 197.091 453.639 197.423 452.967 197.795C452.582 198.01 452.205 198.238 451.837 198.478C449.737 199.851 450.463 203.068 452.951 203.448L453.007 203.456C453.048 203.462 453.083 203.468 453.123 203.474C451.9 206.344 450.196 209.008 448.062 211.306C445.985 222.392 437.062 223.444 427.517 220.216H427.511C426.467 224.708 424.943 229.097 422.983 233.28H406.809C406.751 233.102 406.699 232.919 406.646 232.741C408.142 232.833 409.649 232.747 411.122 232.478C409.922 231.022 408.722 229.555 407.522 228.1C407.493 228.071 407.47 228.043 407.446 228.014C406.838 227.269 406.223 226.53 405.615 225.785L405.614 225.784C405.576 223.498 405.854 221.218 406.403 219.007Z" fill="#F2F2F2"/>
</svg>
